# Blender 3.6.23
# www.blender.org
mtllib acorn_engine.mtl
o Cube
v 1.000000 1.000000 -1.000000
v 1.000000 -1.000000 -1.000000
v 1.000000 1.000000 1.000000
v 1.000000 -1.000000 1.000000
v 0.127195 -1.624246 -1.000000
v 0.127195 -1.624246 1.000000
v 0.000000 -1.000000 -1.000000
v 0.000000 1.000000 1.000000
v 0.000000 -1.000000 1.000000
v 0.000000 1.000000 -1.000000
v 0.000000 -1.624246 -1.000000
v 0.000000 -1.624246 1.000000
v 0.000000 1.587242 1.000000
v 0.000000 1.587240 -1.000000
v 1.678484 1.587242 -1.000000
v 1.678484 1.587242 1.000000
v 0.000000 1.726317 -1.000000
v 1.000000 1.726317 -1.000000
v 1.000000 1.726317 1.000000
v 0.000000 1.726317 1.000000
v 1.678484 1.224981 -1.000000
v 1.453503 1.000000 -1.000000
v 1.453503 1.000000 1.000000
v 1.678484 1.224981 1.000000
v 1.453503 1.726317 -1.000000
v 1.678484 1.587242 -1.000000
v 1.678484 1.587242 1.000000
v 1.453503 1.726317 1.000000
v 0.175350 1.726317 1.000000
v 0.175350 1.726317 -1.000000
v 0.175350 1.726317 -0.100000
v 0.000000 1.726317 -0.100000
v 0.175350 1.726317 0.099999
v 0.000000 1.726317 0.100001
v 0.000000 2.509014 -0.100000
v 0.175350 2.509014 -0.100000
v 0.175350 2.509014 0.099999
v 0.000000 2.509014 0.100001
v -1.000000 1.000000 -1.000000
v -1.000000 -1.000000 -1.000000
v -1.000000 1.000000 1.000000
v -1.000000 -1.000000 1.000000
v -0.127195 -1.624246 -1.000000
v -0.127195 -1.624246 1.000000
v -1.678484 1.587242 -1.000000
v -1.678484 1.587242 1.000000
v -1.000000 1.726317 -1.000000
v -1.000000 1.726317 1.000000
v -1.678484 1.224981 -1.000000
v -1.453503 1.000000 -1.000000
v -1.453503 1.000000 1.000000
v -1.678484 1.224981 1.000000
v -1.453503 1.726317 -1.000000
v -1.678484 1.587242 -1.000000
v -1.678484 1.587242 1.000000
v -1.453503 1.726317 1.000000
v -0.175350 1.726317 1.000000
v -0.175350 1.726317 -1.000000
v -0.175350 1.726317 -0.100000
v -0.175350 1.726317 0.099999
v -0.175350 2.509014 -0.100000
v -0.175350 2.509014 0.099999
vn 1.0000 -0.0000 -0.0000
vn -0.0000 -0.0000 -1.0000
vn -0.0000 -1.0000 -0.0000
vn 0.5817 -0.8134 -0.0000
vn -0.0000 -0.0000 1.0000
vn -0.0000 1.0000 -0.0000
vn 0.7071 -0.7071 -0.0000
vn 0.5258 0.8506 -0.0000
vn -1.0000 -0.0000 -0.0000
vn -0.5817 -0.8134 -0.0000
vn -0.7071 -0.7071 -0.0000
vn -0.5258 0.8506 -0.0000
vn -0.9950 0.0995 -0.0000
vt 0.625000 0.500000
vt 0.375000 0.750000
vt 0.375000 0.500000
vt 0.625000 0.375000
vt 0.375000 0.375000
vt 0.250000 0.750000
vt 0.250000 0.500000
vt 0.375000 0.875000
vt 0.625000 0.750000
vt 0.697114 0.574757
vt 0.697114 0.750000
vt 0.750000 0.670879
vt 0.750000 0.750000
vt 0.750000 0.500000
vt 0.750000 0.574757
vt 0.000000 0.000000
vt 0.697114 0.670879
vt 0.625000 0.875000
vt 0.697114 0.500000
vt 0.625000 0.822114
vt 0.625000 0.427886
s 0
usemtl Material
f 31/10/6 19/9/6 25/1/6
f 24/9/5 16/9/5 28/9/5
f 25/1/2 26/1/2 21/1/2
f 1/1/3 23/9/3 3/9/3
f 24/9/7 22/1/7 21/1/7
f 28/9/8 26/1/8 25/1/8
f 24/9/1 26/1/1 16/9/1
f 29/11/6 34/12/6 20/13/6
f 31/10/6 17/14/6 32/15/6
f 34/16/9 35/16/9 32/16/9
f 37/17/6 35/15/6 38/12/6
f 32/15/2 36/10/2 31/10/2
f 33/17/5 38/12/5 34/12/5
f 31/10/1 37/17/1 33/17/1
f 47/1/6 48/9/6 59/10/6
f 56/9/5 55/9/5 52/9/5
f 49/1/2 54/1/2 53/1/2
f 51/9/3 39/1/3 41/9/3
f 50/1/11 52/9/11 49/1/11
f 54/1/12 56/9/12 53/1/12
f 55/9/9 45/1/9 49/1/9
f 57/11/6 34/12/6 60/17/6
f 17/14/6 59/10/6 32/15/6
f 35/15/6 62/17/6 38/12/6
f 61/10/2 32/15/2 59/10/2
f 38/12/5 60/17/5 34/12/5
f 62/17/9 59/10/9 60/17/9
f 18/1/6 30/19/6 31/10/6
f 31/10/13 33/17/13 29/11/13
f 19/9/6 28/9/6 25/1/6
f 31/10/6 29/11/6 19/9/6
f 25/1/6 18/1/6 31/10/6
f 13/18/5 8/18/5 3/9/5
f 3/9/5 23/9/5 24/9/5
f 13/18/5 3/9/5 24/9/5
f 29/20/5 20/18/5 13/18/5
f 19/9/5 29/20/5 13/18/5
f 28/9/5 19/9/5 13/18/5
f 28/9/5 13/18/5 24/9/5
f 16/9/6 27/9/6 28/9/6
f 1/1/2 10/4/2 14/4/2
f 14/4/2 17/4/2 30/21/2
f 14/4/2 30/21/2 18/1/2
f 22/1/2 1/1/2 14/4/2
f 14/4/2 18/1/2 25/1/2
f 21/1/2 22/1/2 14/4/2
f 21/1/2 14/4/2 25/1/2
f 26/1/6 15/1/6 21/1/6
f 1/1/3 22/1/3 23/9/3
f 24/9/7 23/9/7 22/1/7
f 28/9/8 27/9/8 26/1/8
f 24/9/1 21/1/1 26/1/1
f 26/1/6 27/9/6 16/9/6
f 29/11/6 33/17/6 34/12/6
f 31/10/6 30/19/6 17/14/6
f 34/16/9 38/16/9 35/16/9
f 37/17/6 36/10/6 35/15/6
f 32/15/2 35/15/2 36/10/2
f 33/17/5 37/17/5 38/12/5
f 31/10/1 36/10/1 37/17/1
f 47/1/6 53/1/6 56/9/6
f 48/9/6 57/11/6 60/17/6
f 47/1/6 56/9/6 48/9/6
f 59/10/6 58/19/6 47/1/6
f 48/9/6 60/17/6 59/10/6
f 41/9/5 8/18/5 13/18/5
f 13/18/5 20/18/5 57/20/5
f 13/18/5 57/20/5 48/9/5
f 51/9/5 41/9/5 13/18/5
f 13/18/5 48/9/5 56/9/5
f 52/9/5 51/9/5 13/18/5
f 52/9/5 13/18/5 56/9/5
f 55/9/6 46/9/6 52/9/6
f 39/1/2 50/1/2 49/1/2
f 10/4/2 39/1/2 49/1/2
f 58/21/2 17/4/2 14/4/2
f 14/4/2 10/4/2 49/1/2
f 58/21/2 14/4/2 49/1/2
f 47/1/2 58/21/2 49/1/2
f 53/1/2 47/1/2 49/1/2
f 49/1/6 45/1/6 54/1/6
f 51/9/3 50/1/3 39/1/3
f 50/1/11 51/9/11 52/9/11
f 54/1/12 55/9/12 56/9/12
f 49/1/9 52/9/9 55/9/9
f 55/9/6 54/1/6 45/1/6
f 57/11/6 20/13/6 34/12/6
f 17/14/6 58/19/6 59/10/6
f 35/15/6 61/10/6 62/17/6
f 61/10/2 35/15/2 32/15/2
f 38/12/5 62/17/5 60/17/5
f 62/17/9 61/10/9 59/10/9
usemtl Brown
f 1/1/1 4/2/1 2/3/1
f 10/4/2 2/3/2 7/5/2
f 5/3/3 12/6/3 11/7/3
f 4/2/4 5/3/4 2/3/4
f 7/5/2 5/3/2 11/5/2
f 9/8/5 6/2/5 4/2/5
f 3/9/5 9/8/5 4/2/5
f 42/2/9 39/1/9 40/3/9
f 40/3/2 10/4/2 7/5/2
f 12/6/3 43/3/3 11/7/3
f 43/3/10 42/2/10 40/3/10
f 7/5/2 43/3/2 40/3/2
f 44/2/5 9/8/5 42/2/5
f 9/8/5 41/9/5 42/2/5
f 1/1/1 3/9/1 4/2/1
f 10/4/2 1/1/2 2/3/2
f 5/3/3 6/2/3 12/6/3
f 4/2/4 6/2/4 5/3/4
f 7/5/2 2/3/2 5/3/2
f 9/8/5 12/8/5 6/2/5
f 3/9/5 8/18/5 9/8/5
f 42/2/9 41/9/9 39/1/9
f 40/3/2 39/1/2 10/4/2
f 12/6/3 44/2/3 43/3/3
f 43/3/10 44/2/10 42/2/10
f 7/5/2 11/5/2 43/3/2
f 44/2/5 12/8/5 9/8/5
f 9/8/5 8/18/5 41/9/5
